<?xml version="1.0" encoding="utf-8"?>
<!-- Generator: Adobe Illustrator 23.0.3, SVG Export Plug-In . SVG Version: 6.00 Build 0)  -->
<svg version="1.1" id="Layer_1" focusable="false" xmlns="http://www.w3.org/2000/svg" xmlns:xlink="http://www.w3.org/1999/xlink"
	 x="0px" y="0px" viewBox="0 0 34 34" style="enable-background:new 0 0 34 34;" xml:space="preserve">
<style type="text/css">
	.st0{fill:#E60505;}
</style>
<path class="st0" d="M14.2,18.9c2.6,0,4.7-2.1,4.7-4.7c0-2.6-2.1-4.7-4.7-4.7c-2.6,0-4.7,2.1-4.7,4.7C9.4,16.8,11.5,18.9,14.2,18.9z
	"/>
<path class="st0" d="M0,0"/>
<path class="st0" d="M8.7,18.9c-2.6,0-4.7-2.1-4.7-4.7c0-2.6,2.1-4.7,4.7-4.7L8.7,18.9z"/>
<path class="st0" d="M19.6,24.1l0-4.5l4.5,0C24.1,22.1,22.1,24.1,19.6,24.1z"/>
<path class="st0" d="M8.7,8.7l-4.5,0c0-2.5,2-4.5,4.5-4.5"/>
<path class="st0" d="M8.7,24.1v-4.5l-4.5,0C4.2,22.1,6.2,24.1,8.7,24.1z"/>
<path class="st0" d="M25.1,18.2l0-8.2c1.4,0.8,2.3,2.3,2.3,4.1C27.4,15.9,26.5,17.4,25.1,18.2z"/>
<path class="st0" d="M10.1,3.2l8.2,0c-0.8-1.4-2.3-2.3-4.1-2.3C12.4,0.9,10.9,1.8,10.1,3.2z"/>
<path class="st0" d="M18.2,25.1l-8.2,0c0.8,1.4,2.3,2.3,4.1,2.3C15.8,27.4,17.3,26.5,18.2,25.1z"/>
<path class="st0" d="M18.9,19.6c0,2.6-2.1,4.7-4.7,4.7c-2.6,0-4.7-2.1-4.7-4.7H18.9z"/>
<path class="st0" d="M19.6,18.9c2.6,0,4.7-2.1,4.7-4.7c0-2.6-2.1-4.7-4.7-4.7V18.9z"/>
<path class="st0" d="M18.9,8.7c0-2.6-2.1-4.7-4.7-4.7c-2.6,0-4.7,2.1-4.7,4.7H18.9z"/>
<path class="st0" d="M3.2,18.2l0-8.2c-1.4,0.8-2.3,2.3-2.3,4.1C0.9,15.9,1.8,17.4,3.2,18.2z"/>
<path class="st0" d="M19.6,8.7l0-4.5c2.5,0,4.5,2,4.5,4.5"/>
</svg>
